<svg xmlns="http://www.w3.org/2000/svg" viewBox="0 0 720 540" role="img" aria-labelledby="title desc">
  <title id="title">Architecture delivery map</title>
  <desc id="desc">Abstract system map showing documentation, contracts, API, frontend, and operations moving through review.</desc>
  <rect width="720" height="540" fill="#f7f4ed" />
  <path d="M88 124h544M88 270h544M88 416h544M154 76v388M360 76v388M566 76v388" stroke="#d9d2c4" stroke-width="2" />
  <rect x="92" y="88" width="168" height="72" rx="8" fill="#111713" />
  <text x="116" y="132" fill="#fdfaf3" font-family="Arial, sans-serif" font-size="22" font-weight="700">Decisions</text>
  <rect x="278" y="88" width="164" height="72" rx="8" fill="#2f6f5e" />
  <text x="315" y="132" fill="#fdfaf3" font-family="Arial, sans-serif" font-size="22" font-weight="700">Contracts</text>
  <rect x="460" y="88" width="168" height="72" rx="8" fill="#b85c38" />
  <text x="503" y="132" fill="#fdfaf3" font-family="Arial, sans-serif" font-size="22" font-weight="700">Review</text>
  <rect x="112" y="244" width="184" height="84" rx="8" fill="#ffffff" stroke="#111713" stroke-width="3" />
  <text x="146" y="294" fill="#111713" font-family="Arial, sans-serif" font-size="24" font-weight="700">Frontend</text>
  <rect x="424" y="244" width="184" height="84" rx="8" fill="#ffffff" stroke="#111713" stroke-width="3" />
  <text x="467" y="294" fill="#111713" font-family="Arial, sans-serif" font-size="24" font-weight="700">Backend</text>
  <path d="M308 286h104" stroke="#2f6f5e" stroke-width="8" stroke-linecap="round" />
  <path d="m402 268 28 18-28 18" fill="none" stroke="#2f6f5e" stroke-width="8" stroke-linecap="round" stroke-linejoin="round" />
  <rect x="210" y="390" width="300" height="72" rx="8" fill="#111713" />
  <text x="246" y="434" fill="#fdfaf3" font-family="Arial, sans-serif" font-size="22" font-weight="700">Operational evidence</text>
  <circle cx="92" cy="124" r="12" fill="#d69a78" />
  <circle cx="632" cy="124" r="12" fill="#d69a78" />
  <circle cx="360" cy="286" r="16" fill="#d69a78" />
  <circle cx="510" cy="426" r="12" fill="#2f6f5e" />
</svg>
